<?xml version="1.0"?>
<svg width="255.582" height="290.108" xmlns="http://www.w3.org/2000/svg" xmlns:svg="http://www.w3.org/2000/svg" preserveAspectRatio="xMidYMid">

 <g class="layer">
  <title>Layer 1</title>
  <path d="m259.57,84.45c0,-4.83 -1.04,-9.1 -3.13,-12.76c-2.05,-3.6 -5.12,-6.62 -9.24,-9.01c-34.03,-19.62 -68.09,-39.18 -102.1,-58.81c-9.17,-5.3 -18.06,-5.1 -27.16,0.27c-13.54,7.98 -81.35,46.83 -101.55,58.53c-8.33,4.82 -12.37,12.19 -12.38,21.77c-0.01,39.46 0,78.91 -0.01,118.37c0,4.72 0.99,8.91 2.99,12.51c2.05,3.72 5.17,6.82 9.38,9.26c20.21,11.7 88.02,50.55 101.56,58.54c9.11,5.37 18,5.56 27.17,0.26c34.02,-19.63 68.08,-39.19 102.11,-58.81c4.22,-2.44 7.33,-5.55 9.38,-9.26c2,-3.6 2.99,-7.79 2.99,-12.51c0,0 0,-78.89 -0.01,-118.35" fill="#2f2f31" id="svg_1" transform="matrix(1, 0, 0, 1, 0, 0)"/>
  <path d="m128.18,143.24l-125.19,72.09c2.05,3.71 5.17,6.81 9.38,9.25c20.21,11.7 88.02,50.55 101.56,58.54c9.11,5.37 18,5.56 27.17,0.26c34.02,-19.63 68.08,-39.19 102.11,-58.81c4.22,-2.44 7.33,-5.55 9.38,-9.26l-124.41,-72.07z" fill="#555559" id="svg_2" transform="matrix(1, 0, 0, 1, 0, 0)"/>
  <path d="m255.57,84.45c0,-4.83 -1.04,-9.1 -3.13,-12.76l-124.26,71.55l124.41,72.07c2,-3.6 2.99,-7.79 2.99,-12.51c0,0 0,-78.89 -0.01,-118.35" fill="#60606b" id="svg_3"/>
  <g fill="#fff" id="svg_4">
   <path d="m201.89,116.29l0,13.48l13.48,0l0,-13.48l6.73,0l0,13.48l13.48,0l0,6.73l-13.48,0l0,13.48l13.48,0l0,6.74l-13.48,0l0,13.47l-6.73,0l0,-13.47l-13.48,0l0,13.47l-6.73,0l0,-13.47l-13.48,0l0,-6.74l13.48,0l0,-13.48l-13.48,0l0,-6.73l13.48,0l0,-13.48l6.73,0zm13.48,20.21l-13.48,0l0,13.48l13.48,0l0,-13.48z" id="svg_5"/>
   <path d="m128.46,48.63c35.14,0 65.82,19.08 82.26,47.45l-0.16,-0.27l-41.35,23.81c-8.15,-13.8 -23.08,-23.11 -40.21,-23.3l-0.54,0c-26.13,0 -47.31,21.18 -47.31,47.31a47.08,47.08 0 0 0 6.24,23.46c8.15,14.24 23.48,23.84 41.07,23.84c17.69,0 33.11,-9.72 41.22,-24.11l-0.2,0.35l41.29,23.91c-16.26,28.13 -46.52,47.16 -81.25,47.54l-1.06,0.01c-35.26,0 -66.03,-19.21 -82.42,-47.73c-8,-13.92 -12.58,-30.06 -12.58,-47.27c0,-52.47 42.53,-95 95,-95z" id="svg_6"/>
  </g>
 </g>
</svg>